<svg width="40" height="35" viewBox="0 0 40 35" fill="none" xmlns="http://www.w3.org/2000/svg">
<mask id="path-1-inside-1" fill="white">
<path d="M31.0185 34.9999H8.98148C7.33752 34.9999 6 33.3502 6 31.3223V11.9735C6 11.2671 6.46427 10.6943 7.03704 10.6943C7.60981 10.6943 8.07407 11.2671 8.07407 11.9735V31.3223C8.07407 31.9395 8.48111 32.4416 8.98148 32.4416H31.0185C31.5189 32.4416 31.9259 31.9395 31.9259 31.3223V11.9735C31.9259 11.2671 32.3902 10.6943 32.963 10.6943C33.5357 10.6943 34 11.2671 34 11.9735V31.3223C34 33.3501 32.6625 34.9999 31.0185 34.9999Z"/>
</mask>
<path d="M31.0185 34.9999H8.98148C7.33752 34.9999 6 33.3502 6 31.3223V11.9735C6 11.2671 6.46427 10.6943 7.03704 10.6943C7.60981 10.6943 8.07407 11.2671 8.07407 11.9735V31.3223C8.07407 31.9395 8.48111 32.4416 8.98148 32.4416H31.0185C31.5189 32.4416 31.9259 31.9395 31.9259 31.3223V11.9735C31.9259 11.2671 32.3902 10.6943 32.963 10.6943C33.5357 10.6943 34 11.2671 34 11.9735V31.3223C34 33.3501 32.6625 34.9999 31.0185 34.9999Z" fill="#878787"/>
<path d="M31.0185 24.9999H8.98148V44.9999H31.0185V24.9999ZM8.98148 24.9999C11.6968 24.9999 13.6386 26.3861 14.6421 27.6239C15.632 28.8449 16 30.1831 16 31.3223H-4C-4 36.8106 -0.0434313 44.9999 8.98148 44.9999V24.9999ZM16 31.3223V11.9735H-4V31.3223H16ZM16 11.9735C16 13.7657 15.4183 15.7054 14.0718 17.3664C12.7091 19.0473 10.2787 20.6943 7.03704 20.6943V0.694336C-0.917159 0.694336 -4 7.80726 -4 11.9735H16ZM7.03704 20.6943C3.79542 20.6943 1.36498 19.0473 0.00230837 17.3664C-1.34424 15.7054 -1.92593 13.7657 -1.92593 11.9735H18.0741C18.0741 7.80726 14.9912 0.694336 7.03704 0.694336V20.6943ZM-1.92593 11.9735V31.3223H18.0741V11.9735H-1.92593ZM-1.92593 31.3223C-1.92593 35.3998 1.10004 42.4416 8.98148 42.4416V22.4416C12.2684 22.4416 14.7287 24.1145 16.108 25.8158C17.4736 27.5002 18.0741 29.478 18.0741 31.3223H-1.92593ZM8.98148 42.4416H31.0185V22.4416H8.98148V42.4416ZM31.0185 42.4416C38.9 42.4416 41.9259 35.3998 41.9259 31.3223H21.9259C21.9259 29.478 22.5264 27.5002 23.892 25.8158C25.2713 24.1145 27.7316 22.4416 31.0185 22.4416V42.4416ZM41.9259 31.3223V11.9735H21.9259V31.3223H41.9259ZM41.9259 11.9735C41.9259 13.7657 41.3442 15.7054 39.9977 17.3664C38.635 19.0473 36.2046 20.6943 32.963 20.6943V0.694336C25.0088 0.694336 21.9259 7.80726 21.9259 11.9735H41.9259ZM32.963 20.6943C29.7213 20.6943 27.2909 19.0473 25.9282 17.3664C24.5817 15.7054 24 13.7657 24 11.9735H44C44 7.80726 40.9172 0.694336 32.963 0.694336V20.6943ZM24 11.9735V31.3223H44V11.9735H24ZM24 31.3223C24 30.1831 24.3679 28.845 25.3578 27.624C26.3613 26.3862 28.3031 24.9999 31.0185 24.9999V44.9999C40.0437 44.9999 44 36.8102 44 31.3223H24Z" fill="#878787" mask="url(#path-1-inside-1)"/>
<path d="M38.75 18.4722C38.4301 18.4722 38.1103 18.3558 37.8662 18.123L22.3202 3.29799C21.0409 2.07794 18.9592 2.07794 17.6798 3.29799L2.13389 18.123C1.64576 18.5886 0.854278 18.5886 0.366153 18.123C-0.122051 17.6576 -0.122051 16.9028 0.366153 16.4373L15.9121 1.61215C18.1662 -0.537385 21.8339 -0.537385 24.0879 1.61215L39.6339 16.4372C40.1221 16.9028 40.1221 17.6575 39.6339 18.123C39.3899 18.3558 39.0699 18.4722 38.75 18.4722Z" fill="#878787"/>
</svg>
