<svg width="49" height="49" viewBox="0 0 49 49" fill="none" xmlns="http://www.w3.org/2000/svg">
<path d="M24.5 26.7969C25.7685 26.7969 26.7969 25.7685 26.7969 24.5C26.7969 23.2315 25.7685 22.2031 24.5 22.2031C23.2315 22.2031 22.2031 23.2315 22.2031 24.5C22.2031 25.7685 23.2315 26.7969 24.5 26.7969Z" fill="#212121"/>
<path d="M24.5 14.5469C25.7685 14.5469 26.7969 13.5185 26.7969 12.25C26.7969 10.9815 25.7685 9.95312 24.5 9.95312C23.2315 9.95312 22.2031 10.9815 22.2031 12.25C22.2031 13.5185 23.2315 14.5469 24.5 14.5469Z" fill="#212121"/>
<path d="M24.5 39.0469C25.7685 39.0469 26.7969 38.0185 26.7969 36.75C26.7969 35.4815 25.7685 34.4531 24.5 34.4531C23.2315 34.4531 22.2031 35.4815 22.2031 36.75C22.2031 38.0185 23.2315 39.0469 24.5 39.0469Z" fill="#212121"/>
</svg>
